<svg class="rich-terminal" viewBox="0 0 1458 879.5999999999999" xmlns="http://www.w3.org/2000/svg">
    <!-- Generated with Rich https://www.textualize.io -->
    <style>

    @font-face {
        font-family: "Fira Code";
        src: local("FiraCode-Regular"),
                url("https://cdnjs.cloudflare.com/ajax/libs/firacode/6.2.0/woff2/FiraCode-Regular.woff2") format("woff2"),
                url("https://cdnjs.cloudflare.com/ajax/libs/firacode/6.2.0/woff/FiraCode-Regular.woff") format("woff");
        font-style: normal;
        font-weight: 400;
    }
    @font-face {
        font-family: "Fira Code";
        src: local("FiraCode-Bold"),
                url("https://cdnjs.cloudflare.com/ajax/libs/firacode/6.2.0/woff2/FiraCode-Bold.woff2") format("woff2"),
                url("https://cdnjs.cloudflare.com/ajax/libs/firacode/6.2.0/woff/FiraCode-Bold.woff") format("woff");
        font-style: bold;
        font-weight: 700;
    }

    .terminal-2581599488-matrix {
        font-family: Fira Code, monospace;
        font-size: 20px;
        line-height: 24.4px;
        font-variant-east-asian: full-width;
    }

    .terminal-2581599488-title {
        font-size: 18px;
        font-weight: bold;
        font-family: arial;
    }

    .terminal-2581599488-r1 { fill: #c5c8c6 }
.terminal-2581599488-r2 { fill: #38e08e;font-weight: bold }
.terminal-2581599488-r3 { fill: #0d1117 }
.terminal-2581599488-r4 { fill: #c9d1d9;font-weight: bold }
.terminal-2581599488-r5 { fill: #0178d4 }
.terminal-2581599488-r6 { fill: #38e08e }
.terminal-2581599488-r7 { fill: #c9d1d9 }
.terminal-2581599488-r8 { fill: #8b949e }
.terminal-2581599488-r9 { fill: #30363d }
.terminal-2581599488-r10 { fill: #000000 }
.terminal-2581599488-r11 { fill: #8b949e;font-weight: bold }
.terminal-2581599488-r12 { fill: #ffa62b;font-weight: bold }
.terminal-2581599488-r13 { fill: #e0e0e0 }
.terminal-2581599488-r14 { fill: #3e4248 }
    </style>

    <defs>
    <clipPath id="terminal-2581599488-clip-terminal">
      <rect x="0" y="0" width="1438.6" height="828.5999999999999" />
    </clipPath>
    <clipPath id="terminal-2581599488-line-0">
    <rect x="0" y="1.5" width="1439.6" height="24.65"/>
            </clipPath>
<clipPath id="terminal-2581599488-line-1">
    <rect x="0" y="25.9" width="1439.6" height="24.65"/>
            </clipPath>
<clipPath id="terminal-2581599488-line-2">
    <rect x="0" y="50.3" width="1439.6" height="24.65"/>
            </clipPath>
<clipPath id="terminal-2581599488-line-3">
    <rect x="0" y="74.7" width="1439.6" height="24.65"/>
            </clipPath>
<clipPath id="terminal-2581599488-line-4">
    <rect x="0" y="99.1" width="1439.6" height="24.65"/>
            </clipPath>
<clipPath id="terminal-2581599488-line-5">
    <rect x="0" y="123.5" width="1439.6" height="24.65"/>
            </clipPath>
<clipPath id="terminal-2581599488-line-6">
    <rect x="0" y="147.9" width="1439.6" height="24.65"/>
            </clipPath>
<clipPath id="terminal-2581599488-line-7">
    <rect x="0" y="172.3" width="1439.6" height="24.65"/>
            </clipPath>
<clipPath id="terminal-2581599488-line-8">
    <rect x="0" y="196.7" width="1439.6" height="24.65"/>
            </clipPath>
<clipPath id="terminal-2581599488-line-9">
    <rect x="0" y="221.1" width="1439.6" height="24.65"/>
            </clipPath>
<clipPath id="terminal-2581599488-line-10">
    <rect x="0" y="245.5" width="1439.6" height="24.65"/>
            </clipPath>
<clipPath id="terminal-2581599488-line-11">
    <rect x="0" y="269.9" width="1439.6" height="24.65"/>
            </clipPath>
<clipPath id="terminal-2581599488-line-12">
    <rect x="0" y="294.3" width="1439.6" height="24.65"/>
            </clipPath>
<clipPath id="terminal-2581599488-line-13">
    <rect x="0" y="318.7" width="1439.6" height="24.65"/>
            </clipPath>
<clipPath id="terminal-2581599488-line-14">
    <rect x="0" y="343.1" width="1439.6" height="24.65"/>
            </clipPath>
<clipPath id="terminal-2581599488-line-15">
    <rect x="0" y="367.5" width="1439.6" height="24.65"/>
            </clipPath>
<clipPath id="terminal-2581599488-line-16">
    <rect x="0" y="391.9" width="1439.6" height="24.65"/>
            </clipPath>
<clipPath id="terminal-2581599488-line-17">
    <rect x="0" y="416.3" width="1439.6" height="24.65"/>
            </clipPath>
<clipPath id="terminal-2581599488-line-18">
    <rect x="0" y="440.7" width="1439.6" height="24.65"/>
            </clipPath>
<clipPath id="terminal-2581599488-line-19">
    <rect x="0" y="465.1" width="1439.6" height="24.65"/>
            </clipPath>
<clipPath id="terminal-2581599488-line-20">
    <rect x="0" y="489.5" width="1439.6" height="24.65"/>
            </clipPath>
<clipPath id="terminal-2581599488-line-21">
    <rect x="0" y="513.9" width="1439.6" height="24.65"/>
            </clipPath>
<clipPath id="terminal-2581599488-line-22">
    <rect x="0" y="538.3" width="1439.6" height="24.65"/>
            </clipPath>
<clipPath id="terminal-2581599488-line-23">
    <rect x="0" y="562.7" width="1439.6" height="24.65"/>
            </clipPath>
<clipPath id="terminal-2581599488-line-24">
    <rect x="0" y="587.1" width="1439.6" height="24.65"/>
            </clipPath>
<clipPath id="terminal-2581599488-line-25">
    <rect x="0" y="611.5" width="1439.6" height="24.65"/>
            </clipPath>
<clipPath id="terminal-2581599488-line-26">
    <rect x="0" y="635.9" width="1439.6" height="24.65"/>
            </clipPath>
<clipPath id="terminal-2581599488-line-27">
    <rect x="0" y="660.3" width="1439.6" height="24.65"/>
            </clipPath>
<clipPath id="terminal-2581599488-line-28">
    <rect x="0" y="684.7" width="1439.6" height="24.65"/>
            </clipPath>
<clipPath id="terminal-2581599488-line-29">
    <rect x="0" y="709.1" width="1439.6" height="24.65"/>
            </clipPath>
<clipPath id="terminal-2581599488-line-30">
    <rect x="0" y="733.5" width="1439.6" height="24.65"/>
            </clipPath>
<clipPath id="terminal-2581599488-line-31">
    <rect x="0" y="757.9" width="1439.6" height="24.65"/>
            </clipPath>
<clipPath id="terminal-2581599488-line-32">
    <rect x="0" y="782.3" width="1439.6" height="24.65"/>
            </clipPath>
    </defs>

    <rect fill="#292929" stroke="rgba(255,255,255,0.35)" stroke-width="1" x="1" y="1" width="1456" height="877.6" rx="8"/><text class="terminal-2581599488-title" fill="#c5c8c6" text-anchor="middle" x="728" y="27">PHNTM&#160;—&#160;ghost&#160;protocol</text>
            <g transform="translate(26,22)">
            <circle cx="0" cy="0" r="7" fill="#ff5f57"/>
            <circle cx="22" cy="0" r="7" fill="#febc2e"/>
            <circle cx="44" cy="0" r="7" fill="#28c840"/>
            </g>
        
    <g transform="translate(9, 41)" clip-path="url(#terminal-2581599488-clip-terminal)">
    <rect fill="#0d1117" x="0" y="1.5" width="1439.6" height="24.65" shape-rendering="crispEdges"/><rect fill="#0d1117" x="0" y="25.9" width="36.6" height="24.65" shape-rendering="crispEdges"/><rect fill="#0d1117" x="36.6" y="25.9" width="378.2" height="24.65" shape-rendering="crispEdges"/><rect fill="#0d1117" x="414.8" y="25.9" width="963.8" height="24.65" shape-rendering="crispEdges"/><rect fill="#003054" x="1378.6" y="25.9" width="24.4" height="24.65" shape-rendering="crispEdges"/><rect fill="#0d1117" x="1403" y="25.9" width="36.6" height="24.65" shape-rendering="crispEdges"/><rect fill="#0d1117" x="0" y="50.3" width="36.6" height="24.65" shape-rendering="crispEdges"/><rect fill="#0d1117" x="36.6" y="50.3" width="256.2" height="24.65" shape-rendering="crispEdges"/><rect fill="#0d1117" x="292.8" y="50.3" width="1085.8" height="24.65" shape-rendering="crispEdges"/><rect fill="#003054" x="1378.6" y="50.3" width="24.4" height="24.65" shape-rendering="crispEdges"/><rect fill="#0d1117" x="1403" y="50.3" width="36.6" height="24.65" shape-rendering="crispEdges"/><rect fill="#0d1117" x="0" y="74.7" width="36.6" height="24.65" shape-rendering="crispEdges"/><rect fill="#0d1117" x="36.6" y="74.7" width="1342" height="24.65" shape-rendering="crispEdges"/><rect fill="#003054" x="1378.6" y="74.7" width="24.4" height="24.65" shape-rendering="crispEdges"/><rect fill="#0d1117" x="1403" y="74.7" width="36.6" height="24.65" shape-rendering="crispEdges"/><rect fill="#0d1117" x="0" y="99.1" width="36.6" height="24.65" shape-rendering="crispEdges"/><rect fill="#0d1117" x="36.6" y="99.1" width="353.8" height="24.65" shape-rendering="crispEdges"/><rect fill="#0d1117" x="390.4" y="99.1" width="12.2" height="24.65" shape-rendering="crispEdges"/><rect fill="#0d1117" x="402.6" y="99.1" width="24.4" height="24.65" shape-rendering="crispEdges"/><rect fill="#0d1117" x="427" y="99.1" width="24.4" height="24.65" shape-rendering="crispEdges"/><rect fill="#0d1117" x="451.4" y="99.1" width="36.6" height="24.65" shape-rendering="crispEdges"/><rect fill="#0d1117" x="488" y="99.1" width="12.2" height="24.65" shape-rendering="crispEdges"/><rect fill="#0d1117" x="500.2" y="99.1" width="97.6" height="24.65" shape-rendering="crispEdges"/><rect fill="#0d1117" x="597.8" y="99.1" width="780.8" height="24.65" shape-rendering="crispEdges"/><rect fill="#003054" x="1378.6" y="99.1" width="24.4" height="24.65" shape-rendering="crispEdges"/><rect fill="#0d1117" x="1403" y="99.1" width="36.6" height="24.65" shape-rendering="crispEdges"/><rect fill="#0d1117" x="0" y="123.5" width="36.6" height="24.65" shape-rendering="crispEdges"/><rect fill="#0d1117" x="36.6" y="123.5" width="561.2" height="24.65" shape-rendering="crispEdges"/><rect fill="#0d1117" x="597.8" y="123.5" width="780.8" height="24.65" shape-rendering="crispEdges"/><rect fill="#003054" x="1378.6" y="123.5" width="24.4" height="24.65" shape-rendering="crispEdges"/><rect fill="#0d1117" x="1403" y="123.5" width="36.6" height="24.65" shape-rendering="crispEdges"/><rect fill="#0d1117" x="0" y="147.9" width="36.6" height="24.65" shape-rendering="crispEdges"/><rect fill="#0d1117" x="36.6" y="147.9" width="561.2" height="24.65" shape-rendering="crispEdges"/><rect fill="#0d1117" x="597.8" y="147.9" width="780.8" height="24.65" shape-rendering="crispEdges"/><rect fill="#003054" x="1378.6" y="147.9" width="24.4" height="24.65" shape-rendering="crispEdges"/><rect fill="#0d1117" x="1403" y="147.9" width="36.6" height="24.65" shape-rendering="crispEdges"/><rect fill="#0d1117" x="0" y="172.3" width="36.6" height="24.65" shape-rendering="crispEdges"/><rect fill="#0d1117" x="36.6" y="172.3" width="561.2" height="24.65" shape-rendering="crispEdges"/><rect fill="#0d1117" x="597.8" y="172.3" width="780.8" height="24.65" shape-rendering="crispEdges"/><rect fill="#003054" x="1378.6" y="172.3" width="24.4" height="24.65" shape-rendering="crispEdges"/><rect fill="#0d1117" x="1403" y="172.3" width="36.6" height="24.65" shape-rendering="crispEdges"/><rect fill="#0d1117" x="0" y="196.7" width="36.6" height="24.65" shape-rendering="crispEdges"/><rect fill="#0d1117" x="36.6" y="196.7" width="463.6" height="24.65" shape-rendering="crispEdges"/><rect fill="#0d1117" x="500.2" y="196.7" width="878.4" height="24.65" shape-rendering="crispEdges"/><rect fill="#003054" x="1378.6" y="196.7" width="24.4" height="24.65" shape-rendering="crispEdges"/><rect fill="#0d1117" x="1403" y="196.7" width="36.6" height="24.65" shape-rendering="crispEdges"/><rect fill="#0d1117" x="0" y="221.1" width="36.6" height="24.65" shape-rendering="crispEdges"/><rect fill="#0d1117" x="36.6" y="221.1" width="1342" height="24.65" shape-rendering="crispEdges"/><rect fill="#003054" x="1378.6" y="221.1" width="24.4" height="24.65" shape-rendering="crispEdges"/><rect fill="#0d1117" x="1403" y="221.1" width="36.6" height="24.65" shape-rendering="crispEdges"/><rect fill="#0d1117" x="0" y="245.5" width="36.6" height="24.65" shape-rendering="crispEdges"/><rect fill="#0f141a" x="36.6" y="245.5" width="12.2" height="24.65" shape-rendering="crispEdges"/><rect fill="#0f141a" x="48.8" y="245.5" width="1317.6" height="24.65" shape-rendering="crispEdges"/><rect fill="#0f141a" x="1366.4" y="245.5" width="12.2" height="24.65" shape-rendering="crispEdges"/><rect fill="#003054" x="1378.6" y="245.5" width="24.4" height="24.65" shape-rendering="crispEdges"/><rect fill="#0d1117" x="1403" y="245.5" width="36.6" height="24.65" shape-rendering="crispEdges"/><rect fill="#0d1117" x="0" y="269.9" width="36.6" height="24.65" shape-rendering="crispEdges"/><rect fill="#0f141a" x="36.6" y="269.9" width="12.2" height="24.65" shape-rendering="crispEdges"/><rect fill="#0f141a" x="48.8" y="269.9" width="1317.6" height="24.65" shape-rendering="crispEdges"/><rect fill="#0f141a" x="1366.4" y="269.9" width="12.2" height="24.65" shape-rendering="crispEdges"/><rect fill="#003054" x="1378.6" y="269.9" width="24.4" height="24.65" shape-rendering="crispEdges"/><rect fill="#0d1117" x="1403" y="269.9" width="36.6" height="24.65" shape-rendering="crispEdges"/><rect fill="#0d1117" x="0" y="294.3" width="36.6" height="24.65" shape-rendering="crispEdges"/><rect fill="#0f141a" x="36.6" y="294.3" width="12.2" height="24.65" shape-rendering="crispEdges"/><rect fill="#0f141a" x="48.8" y="294.3" width="24.4" height="24.65" shape-rendering="crispEdges"/><rect fill="#0f141a" x="73.2" y="294.3" width="549" height="24.65" shape-rendering="crispEdges"/><rect fill="#0f141a" x="622.2" y="294.3" width="719.8" height="24.65" shape-rendering="crispEdges"/><rect fill="#0f141a" x="1342" y="294.3" width="24.4" height="24.65" shape-rendering="crispEdges"/><rect fill="#0f141a" x="1366.4" y="294.3" width="12.2" height="24.65" shape-rendering="crispEdges"/><rect fill="#003054" x="1378.6" y="294.3" width="24.4" height="24.65" shape-rendering="crispEdges"/><rect fill="#0d1117" x="1403" y="294.3" width="36.6" height="24.65" shape-rendering="crispEdges"/><rect fill="#0d1117" x="0" y="318.7" width="36.6" height="24.65" shape-rendering="crispEdges"/><rect fill="#0f141a" x="36.6" y="318.7" width="12.2" height="24.65" shape-rendering="crispEdges"/><rect fill="#0f141a" x="48.8" y="318.7" width="24.4" height="24.65" shape-rendering="crispEdges"/><rect fill="#0f141a" x="73.2" y="318.7" width="597.8" height="24.65" shape-rendering="crispEdges"/><rect fill="#0f141a" x="671" y="318.7" width="671" height="24.65" shape-rendering="crispEdges"/><rect fill="#0f141a" x="1342" y="318.7" width="24.4" height="24.65" shape-rendering="crispEdges"/><rect fill="#0f141a" x="1366.4" y="318.7" width="12.2" height="24.65" shape-rendering="crispEdges"/><rect fill="#003054" x="1378.6" y="318.7" width="24.4" height="24.65" shape-rendering="crispEdges"/><rect fill="#0d1117" x="1403" y="318.7" width="36.6" height="24.65" shape-rendering="crispEdges"/><rect fill="#0d1117" x="0" y="343.1" width="36.6" height="24.65" shape-rendering="crispEdges"/><rect fill="#0f141a" x="36.6" y="343.1" width="12.2" height="24.65" shape-rendering="crispEdges"/><rect fill="#0f141a" x="48.8" y="343.1" width="24.4" height="24.65" shape-rendering="crispEdges"/><rect fill="#0f141a" x="73.2" y="343.1" width="439.2" height="24.65" shape-rendering="crispEdges"/><rect fill="#0f141a" x="512.4" y="343.1" width="829.6" height="24.65" shape-rendering="crispEdges"/><rect fill="#0f141a" x="1342" y="343.1" width="24.4" height="24.65" shape-rendering="crispEdges"/><rect fill="#0f141a" x="1366.4" y="343.1" width="12.2" height="24.65" shape-rendering="crispEdges"/><rect fill="#003054" x="1378.6" y="343.1" width="24.4" height="24.65" shape-rendering="crispEdges"/><rect fill="#0d1117" x="1403" y="343.1" width="36.6" height="24.65" shape-rendering="crispEdges"/><rect fill="#0d1117" x="0" y="367.5" width="36.6" height="24.65" shape-rendering="crispEdges"/><rect fill="#0f141a" x="36.6" y="367.5" width="12.2" height="24.65" shape-rendering="crispEdges"/><rect fill="#0f141a" x="48.8" y="367.5" width="24.4" height="24.65" shape-rendering="crispEdges"/><rect fill="#0f141a" x="73.2" y="367.5" width="378.2" height="24.65" shape-rendering="crispEdges"/><rect fill="#0f141a" x="451.4" y="367.5" width="890.6" height="24.65" shape-rendering="crispEdges"/><rect fill="#0f141a" x="1342" y="367.5" width="24.4" height="24.65" shape-rendering="crispEdges"/><rect fill="#0f141a" x="1366.4" y="367.5" width="12.2" height="24.65" shape-rendering="crispEdges"/><rect fill="#003054" x="1378.6" y="367.5" width="24.4" height="24.65" shape-rendering="crispEdges"/><rect fill="#0d1117" x="1403" y="367.5" width="36.6" height="24.65" shape-rendering="crispEdges"/><rect fill="#0d1117" x="0" y="391.9" width="36.6" height="24.65" shape-rendering="crispEdges"/><rect fill="#0f141a" x="36.6" y="391.9" width="12.2" height="24.65" shape-rendering="crispEdges"/><rect fill="#0f141a" x="48.8" y="391.9" width="24.4" height="24.65" shape-rendering="crispEdges"/><rect fill="#0f141a" x="73.2" y="391.9" width="439.2" height="24.65" shape-rendering="crispEdges"/><rect fill="#0f141a" x="512.4" y="391.9" width="829.6" height="24.65" shape-rendering="crispEdges"/><rect fill="#0f141a" x="1342" y="391.9" width="24.4" height="24.65" shape-rendering="crispEdges"/><rect fill="#0f141a" x="1366.4" y="391.9" width="12.2" height="24.65" shape-rendering="crispEdges"/><rect fill="#003054" x="1378.6" y="391.9" width="24.4" height="24.65" shape-rendering="crispEdges"/><rect fill="#0d1117" x="1403" y="391.9" width="36.6" height="24.65" shape-rendering="crispEdges"/><rect fill="#0d1117" x="0" y="416.3" width="36.6" height="24.65" shape-rendering="crispEdges"/><rect fill="#0f141a" x="36.6" y="416.3" width="12.2" height="24.65" shape-rendering="crispEdges"/><rect fill="#0f141a" x="48.8" y="416.3" width="24.4" height="24.65" shape-rendering="crispEdges"/><rect fill="#0f141a" x="73.2" y="416.3" width="573.4" height="24.65" shape-rendering="crispEdges"/><rect fill="#0f141a" x="646.6" y="416.3" width="695.4" height="24.65" shape-rendering="crispEdges"/><rect fill="#0f141a" x="1342" y="416.3" width="24.4" height="24.65" shape-rendering="crispEdges"/><rect fill="#0f141a" x="1366.4" y="416.3" width="12.2" height="24.65" shape-rendering="crispEdges"/><rect fill="#003054" x="1378.6" y="416.3" width="24.4" height="24.65" shape-rendering="crispEdges"/><rect fill="#0d1117" x="1403" y="416.3" width="36.6" height="24.65" shape-rendering="crispEdges"/><rect fill="#0d1117" x="0" y="440.7" width="36.6" height="24.65" shape-rendering="crispEdges"/><rect fill="#0f141a" x="36.6" y="440.7" width="12.2" height="24.65" shape-rendering="crispEdges"/><rect fill="#0f141a" x="48.8" y="440.7" width="24.4" height="24.65" shape-rendering="crispEdges"/><rect fill="#0f141a" x="73.2" y="440.7" width="475.8" height="24.65" shape-rendering="crispEdges"/><rect fill="#0f141a" x="549" y="440.7" width="793" height="24.65" shape-rendering="crispEdges"/><rect fill="#0f141a" x="1342" y="440.7" width="24.4" height="24.65" shape-rendering="crispEdges"/><rect fill="#0f141a" x="1366.4" y="440.7" width="12.2" height="24.65" shape-rendering="crispEdges"/><rect fill="#003054" x="1378.6" y="440.7" width="24.4" height="24.65" shape-rendering="crispEdges"/><rect fill="#0d1117" x="1403" y="440.7" width="36.6" height="24.65" shape-rendering="crispEdges"/><rect fill="#0d1117" x="0" y="465.1" width="36.6" height="24.65" shape-rendering="crispEdges"/><rect fill="#0f141a" x="36.6" y="465.1" width="12.2" height="24.65" shape-rendering="crispEdges"/><rect fill="#0f141a" x="48.8" y="465.1" width="24.4" height="24.65" shape-rendering="crispEdges"/><rect fill="#0f141a" x="73.2" y="465.1" width="561.2" height="24.65" shape-rendering="crispEdges"/><rect fill="#0f141a" x="634.4" y="465.1" width="707.6" height="24.65" shape-rendering="crispEdges"/><rect fill="#0f141a" x="1342" y="465.1" width="24.4" height="24.65" shape-rendering="crispEdges"/><rect fill="#0f141a" x="1366.4" y="465.1" width="12.2" height="24.65" shape-rendering="crispEdges"/><rect fill="#003054" x="1378.6" y="465.1" width="24.4" height="24.65" shape-rendering="crispEdges"/><rect fill="#0d1117" x="1403" y="465.1" width="36.6" height="24.65" shape-rendering="crispEdges"/><rect fill="#0d1117" x="0" y="489.5" width="36.6" height="24.65" shape-rendering="crispEdges"/><rect fill="#0f141a" x="36.6" y="489.5" width="12.2" height="24.65" shape-rendering="crispEdges"/><rect fill="#0f141a" x="48.8" y="489.5" width="24.4" height="24.65" shape-rendering="crispEdges"/><rect fill="#0f141a" x="73.2" y="489.5" width="524.6" height="24.65" shape-rendering="crispEdges"/><rect fill="#0f141a" x="597.8" y="489.5" width="744.2" height="24.65" shape-rendering="crispEdges"/><rect fill="#0f141a" x="1342" y="489.5" width="24.4" height="24.65" shape-rendering="crispEdges"/><rect fill="#0f141a" x="1366.4" y="489.5" width="12.2" height="24.65" shape-rendering="crispEdges"/><rect fill="#003054" x="1378.6" y="489.5" width="24.4" height="24.65" shape-rendering="crispEdges"/><rect fill="#0d1117" x="1403" y="489.5" width="36.6" height="24.65" shape-rendering="crispEdges"/><rect fill="#0d1117" x="0" y="513.9" width="36.6" height="24.65" shape-rendering="crispEdges"/><rect fill="#0f141a" x="36.6" y="513.9" width="12.2" height="24.65" shape-rendering="crispEdges"/><rect fill="#0f141a" x="48.8" y="513.9" width="24.4" height="24.65" shape-rendering="crispEdges"/><rect fill="#0f141a" x="73.2" y="513.9" width="475.8" height="24.65" shape-rendering="crispEdges"/><rect fill="#0f141a" x="549" y="513.9" width="793" height="24.65" shape-rendering="crispEdges"/><rect fill="#0f141a" x="1342" y="513.9" width="24.4" height="24.65" shape-rendering="crispEdges"/><rect fill="#0f141a" x="1366.4" y="513.9" width="12.2" height="24.65" shape-rendering="crispEdges"/><rect fill="#003054" x="1378.6" y="513.9" width="24.4" height="24.65" shape-rendering="crispEdges"/><rect fill="#0d1117" x="1403" y="513.9" width="36.6" height="24.65" shape-rendering="crispEdges"/><rect fill="#0d1117" x="0" y="538.3" width="36.6" height="24.65" shape-rendering="crispEdges"/><rect fill="#0f141a" x="36.6" y="538.3" width="12.2" height="24.65" shape-rendering="crispEdges"/><rect fill="#0f141a" x="48.8" y="538.3" width="24.4" height="24.65" shape-rendering="crispEdges"/><rect fill="#0f141a" x="73.2" y="538.3" width="524.6" height="24.65" shape-rendering="crispEdges"/><rect fill="#0f141a" x="597.8" y="538.3" width="744.2" height="24.65" shape-rendering="crispEdges"/><rect fill="#0f141a" x="1342" y="538.3" width="24.4" height="24.65" shape-rendering="crispEdges"/><rect fill="#0f141a" x="1366.4" y="538.3" width="12.2" height="24.65" shape-rendering="crispEdges"/><rect fill="#003054" x="1378.6" y="538.3" width="24.4" height="24.65" shape-rendering="crispEdges"/><rect fill="#0d1117" x="1403" y="538.3" width="36.6" height="24.65" shape-rendering="crispEdges"/><rect fill="#0d1117" x="0" y="562.7" width="36.6" height="24.65" shape-rendering="crispEdges"/><rect fill="#0f141a" x="36.6" y="562.7" width="12.2" height="24.65" shape-rendering="crispEdges"/><rect fill="#0f141a" x="48.8" y="562.7" width="24.4" height="24.65" shape-rendering="crispEdges"/><rect fill="#0f141a" x="73.2" y="562.7" width="488" height="24.65" shape-rendering="crispEdges"/><rect fill="#0f141a" x="561.2" y="562.7" width="780.8" height="24.65" shape-rendering="crispEdges"/><rect fill="#0f141a" x="1342" y="562.7" width="24.4" height="24.65" shape-rendering="crispEdges"/><rect fill="#0f141a" x="1366.4" y="562.7" width="12.2" height="24.65" shape-rendering="crispEdges"/><rect fill="#003054" x="1378.6" y="562.7" width="24.4" height="24.65" shape-rendering="crispEdges"/><rect fill="#0d1117" x="1403" y="562.7" width="36.6" height="24.65" shape-rendering="crispEdges"/><rect fill="#0d1117" x="0" y="587.1" width="36.6" height="24.65" shape-rendering="crispEdges"/><rect fill="#0f141a" x="36.6" y="587.1" width="12.2" height="24.65" shape-rendering="crispEdges"/><rect fill="#0f141a" x="48.8" y="587.1" width="24.4" height="24.65" shape-rendering="crispEdges"/><rect fill="#0f141a" x="73.2" y="587.1" width="414.8" height="24.65" shape-rendering="crispEdges"/><rect fill="#0f141a" x="488" y="587.1" width="854" height="24.65" shape-rendering="crispEdges"/><rect fill="#0f141a" x="1342" y="587.1" width="24.4" height="24.65" shape-rendering="crispEdges"/><rect fill="#0f141a" x="1366.4" y="587.1" width="12.2" height="24.65" shape-rendering="crispEdges"/><rect fill="#003054" x="1378.6" y="587.1" width="24.4" height="24.65" shape-rendering="crispEdges"/><rect fill="#0d1117" x="1403" y="587.1" width="36.6" height="24.65" shape-rendering="crispEdges"/><rect fill="#0d1117" x="0" y="611.5" width="36.6" height="24.65" shape-rendering="crispEdges"/><rect fill="#0f141a" x="36.6" y="611.5" width="12.2" height="24.65" shape-rendering="crispEdges"/><rect fill="#0f141a" x="48.8" y="611.5" width="24.4" height="24.65" shape-rendering="crispEdges"/><rect fill="#0f141a" x="73.2" y="611.5" width="244" height="24.65" shape-rendering="crispEdges"/><rect fill="#0f141a" x="317.2" y="611.5" width="1024.8" height="24.65" shape-rendering="crispEdges"/><rect fill="#0f141a" x="1342" y="611.5" width="24.4" height="24.65" shape-rendering="crispEdges"/><rect fill="#0f141a" x="1366.4" y="611.5" width="12.2" height="24.65" shape-rendering="crispEdges"/><rect fill="#003054" x="1378.6" y="611.5" width="24.4" height="24.65" shape-rendering="crispEdges"/><rect fill="#0d1117" x="1403" y="611.5" width="36.6" height="24.65" shape-rendering="crispEdges"/><rect fill="#0d1117" x="0" y="635.9" width="36.6" height="24.65" shape-rendering="crispEdges"/><rect fill="#0f141a" x="36.6" y="635.9" width="12.2" height="24.65" shape-rendering="crispEdges"/><rect fill="#0f141a" x="48.8" y="635.9" width="24.4" height="24.65" shape-rendering="crispEdges"/><rect fill="#0f141a" x="73.2" y="635.9" width="0" height="24.65" shape-rendering="crispEdges"/><rect fill="#0f141a" x="73.2" y="635.9" width="1268.8" height="24.65" shape-rendering="crispEdges"/><rect fill="#0f141a" x="1342" y="635.9" width="24.4" height="24.65" shape-rendering="crispEdges"/><rect fill="#0f141a" x="1366.4" y="635.9" width="12.2" height="24.65" shape-rendering="crispEdges"/><rect fill="#000000" x="1378.6" y="635.9" width="24.4" height="24.65" shape-rendering="crispEdges"/><rect fill="#0d1117" x="1403" y="635.9" width="36.6" height="24.65" shape-rendering="crispEdges"/><rect fill="#0d1117" x="0" y="660.3" width="36.6" height="24.65" shape-rendering="crispEdges"/><rect fill="#0f141a" x="36.6" y="660.3" width="12.2" height="24.65" shape-rendering="crispEdges"/><rect fill="#0f141a" x="48.8" y="660.3" width="24.4" height="24.65" shape-rendering="crispEdges"/><rect fill="#0f141a" x="73.2" y="660.3" width="134.2" height="24.65" shape-rendering="crispEdges"/><rect fill="#0f141a" x="207.4" y="660.3" width="1134.6" height="24.65" shape-rendering="crispEdges"/><rect fill="#0f141a" x="1342" y="660.3" width="24.4" height="24.65" shape-rendering="crispEdges"/><rect fill="#0f141a" x="1366.4" y="660.3" width="12.2" height="24.65" shape-rendering="crispEdges"/><rect fill="#000000" x="1378.6" y="660.3" width="24.4" height="24.65" shape-rendering="crispEdges"/><rect fill="#0d1117" x="1403" y="660.3" width="36.6" height="24.65" shape-rendering="crispEdges"/><rect fill="#0d1117" x="0" y="684.7" width="36.6" height="24.65" shape-rendering="crispEdges"/><rect fill="#0f141a" x="36.6" y="684.7" width="12.2" height="24.65" shape-rendering="crispEdges"/><rect fill="#0f141a" x="48.8" y="684.7" width="1317.6" height="24.65" shape-rendering="crispEdges"/><rect fill="#0f141a" x="1366.4" y="684.7" width="12.2" height="24.65" shape-rendering="crispEdges"/><rect fill="#000000" x="1378.6" y="684.7" width="24.4" height="24.65" shape-rendering="crispEdges"/><rect fill="#0d1117" x="1403" y="684.7" width="36.6" height="24.65" shape-rendering="crispEdges"/><rect fill="#0d1117" x="0" y="709.1" width="36.6" height="24.65" shape-rendering="crispEdges"/><rect fill="#0f141a" x="36.6" y="709.1" width="12.2" height="24.65" shape-rendering="crispEdges"/><rect fill="#0f141a" x="48.8" y="709.1" width="1317.6" height="24.65" shape-rendering="crispEdges"/><rect fill="#0f141a" x="1366.4" y="709.1" width="12.2" height="24.65" shape-rendering="crispEdges"/><rect fill="#000000" x="1378.6" y="709.1" width="24.4" height="24.65" shape-rendering="crispEdges"/><rect fill="#0d1117" x="1403" y="709.1" width="36.6" height="24.65" shape-rendering="crispEdges"/><rect fill="#0d1117" x="0" y="733.5" width="36.6" height="24.65" shape-rendering="crispEdges"/><rect fill="#0d1117" x="36.6" y="733.5" width="1342" height="24.65" shape-rendering="crispEdges"/><rect fill="#000000" x="1378.6" y="733.5" width="24.4" height="24.65" shape-rendering="crispEdges"/><rect fill="#0d1117" x="1403" y="733.5" width="36.6" height="24.65" shape-rendering="crispEdges"/><rect fill="#0d1117" x="0" y="757.9" width="36.6" height="24.65" shape-rendering="crispEdges"/><rect fill="#0d1117" x="36.6" y="757.9" width="829.6" height="24.65" shape-rendering="crispEdges"/><rect fill="#0d1117" x="866.2" y="757.9" width="317.2" height="24.65" shape-rendering="crispEdges"/><rect fill="#0d1117" x="1183.4" y="757.9" width="195.2" height="24.65" shape-rendering="crispEdges"/><rect fill="#000000" x="1378.6" y="757.9" width="24.4" height="24.65" shape-rendering="crispEdges"/><rect fill="#0d1117" x="1403" y="757.9" width="36.6" height="24.65" shape-rendering="crispEdges"/><rect fill="#0d1117" x="0" y="782.3" width="1439.6" height="24.65" shape-rendering="crispEdges"/><rect fill="#161b22" x="0" y="806.7" width="61" height="24.65" shape-rendering="crispEdges"/><rect fill="#161b22" x="61" y="806.7" width="61" height="24.65" shape-rendering="crispEdges"/><rect fill="#161b22" x="122" y="806.7" width="1171.2" height="24.65" shape-rendering="crispEdges"/><rect fill="#161b22" x="1293.2" y="806.7" width="12.2" height="24.65" shape-rendering="crispEdges"/><rect fill="#161b22" x="1305.4" y="806.7" width="24.4" height="24.65" shape-rendering="crispEdges"/><rect fill="#161b22" x="1329.8" y="806.7" width="97.6" height="24.65" shape-rendering="crispEdges"/><rect fill="#161b22" x="1427.4" y="806.7" width="12.2" height="24.65" shape-rendering="crispEdges"/>
    <g class="terminal-2581599488-matrix">
    <text class="terminal-2581599488-r1" x="1439.6" y="20" textLength="12.2" clip-path="url(#terminal-2581599488-line-0)">
</text><text class="terminal-2581599488-r2" x="36.6" y="44.4" textLength="366" clip-path="url(#terminal-2581599488-line-1)">STEP&#160;4/4&#160;—&#160;🎯&#160;Pentester&#160;·&#160;32&#160;GB</text><text class="terminal-2581599488-r1" x="1439.6" y="44.4" textLength="12.2" clip-path="url(#terminal-2581599488-line-1)">
</text><text class="terminal-2581599488-r4" x="36.6" y="68.8" textLength="256.2" clip-path="url(#terminal-2581599488-line-2)">Plan:&#160;PENT&#160;SPECTRE-32</text><text class="terminal-2581599488-r1" x="1439.6" y="68.8" textLength="12.2" clip-path="url(#terminal-2581599488-line-2)">
</text><text class="terminal-2581599488-r1" x="1439.6" y="93.2" textLength="12.2" clip-path="url(#terminal-2581599488-line-3)">
</text><text class="terminal-2581599488-r5" x="36.6" y="117.6" textLength="353.8" clip-path="url(#terminal-2581599488-line-4)">━━━━━━━━━━━━━━━━━━━━━━━━━━━━━</text><text class="terminal-2581599488-r5" x="390.4" y="117.6" textLength="12.2" clip-path="url(#terminal-2581599488-line-4)">╸</text><text class="terminal-2581599488-r6" x="402.6" y="117.6" textLength="24.4" clip-path="url(#terminal-2581599488-line-4)">━━</text><text class="terminal-2581599488-r7" x="451.4" y="117.6" textLength="36.6" clip-path="url(#terminal-2581599488-line-4)">92%</text><text class="terminal-2581599488-r7" x="500.2" y="117.6" textLength="97.6" clip-path="url(#terminal-2581599488-line-4)">--:--:--</text><text class="terminal-2581599488-r1" x="1439.6" y="117.6" textLength="12.2" clip-path="url(#terminal-2581599488-line-4)">
</text><text class="terminal-2581599488-r1" x="1439.6" y="142" textLength="12.2" clip-path="url(#terminal-2581599488-line-5)">
</text><text class="terminal-2581599488-r1" x="1439.6" y="166.4" textLength="12.2" clip-path="url(#terminal-2581599488-line-6)">
</text><text class="terminal-2581599488-r1" x="1439.6" y="190.8" textLength="12.2" clip-path="url(#terminal-2581599488-line-7)">
</text><text class="terminal-2581599488-r8" x="36.6" y="215.2" textLength="463.6" clip-path="url(#terminal-2581599488-line-8)">27.58&#160;GB&#160;used&#160;of&#160;29.86&#160;GB&#160;usable&#160;(92%)</text><text class="terminal-2581599488-r1" x="1439.6" y="215.2" textLength="12.2" clip-path="url(#terminal-2581599488-line-8)">
</text><text class="terminal-2581599488-r1" x="1439.6" y="239.6" textLength="12.2" clip-path="url(#terminal-2581599488-line-9)">
</text><text class="terminal-2581599488-r9" x="36.6" y="264" textLength="12.2" clip-path="url(#terminal-2581599488-line-10)">╭</text><text class="terminal-2581599488-r9" x="48.8" y="264" textLength="1317.6" clip-path="url(#terminal-2581599488-line-10)">────────────────────────────────────────────────────────────────────────────────────────────────────────────</text><text class="terminal-2581599488-r9" x="1366.4" y="264" textLength="12.2" clip-path="url(#terminal-2581599488-line-10)">╮</text><text class="terminal-2581599488-r1" x="1439.6" y="264" textLength="12.2" clip-path="url(#terminal-2581599488-line-10)">
</text><text class="terminal-2581599488-r9" x="36.6" y="288.4" textLength="12.2" clip-path="url(#terminal-2581599488-line-11)">│</text><text class="terminal-2581599488-r9" x="1366.4" y="288.4" textLength="12.2" clip-path="url(#terminal-2581599488-line-11)">│</text><text class="terminal-2581599488-r1" x="1439.6" y="288.4" textLength="12.2" clip-path="url(#terminal-2581599488-line-11)">
</text><text class="terminal-2581599488-r9" x="36.6" y="312.8" textLength="12.2" clip-path="url(#terminal-2581599488-line-12)">│</text><text class="terminal-2581599488-r7" x="73.2" y="312.8" textLength="549" clip-path="url(#terminal-2581599488-line-12)">&#160;&#160;USED&#160;&#160;&#160;&#160;&#160;&#160;&#160;27.58&#160;GB&#160;/&#160;29.86&#160;GB&#160;usable&#160;(92%)</text><text class="terminal-2581599488-r9" x="1366.4" y="312.8" textLength="12.2" clip-path="url(#terminal-2581599488-line-12)">│</text><text class="terminal-2581599488-r1" x="1439.6" y="312.8" textLength="12.2" clip-path="url(#terminal-2581599488-line-12)">
</text><text class="terminal-2581599488-r9" x="36.6" y="337.2" textLength="12.2" clip-path="url(#terminal-2581599488-line-13)">│</text><text class="terminal-2581599488-r7" x="73.2" y="337.2" textLength="585.6" clip-path="url(#terminal-2581599488-line-13)">&#160;&#160;4.30&#160;GB&#160;&#160;&#160;&#160;📀&#160;Kali&#160;Linux&#160;(Live,&#160;non-persistent)</text><text class="terminal-2581599488-r9" x="1366.4" y="337.2" textLength="12.2" clip-path="url(#terminal-2581599488-line-13)">│</text><text class="terminal-2581599488-r1" x="1439.6" y="337.2" textLength="12.2" clip-path="url(#terminal-2581599488-line-13)">
</text><text class="terminal-2581599488-r9" x="36.6" y="361.6" textLength="12.2" clip-path="url(#terminal-2581599488-line-14)">│</text><text class="terminal-2581599488-r7" x="73.2" y="361.6" textLength="427" clip-path="url(#terminal-2581599488-line-14)">&#160;&#160;7.00&#160;GB&#160;&#160;&#160;&#160;📀&#160;BlackArch&#160;Linux&#160;Live</text><text class="terminal-2581599488-r9" x="1366.4" y="361.6" textLength="12.2" clip-path="url(#terminal-2581599488-line-14)">│</text><text class="terminal-2581599488-r1" x="1439.6" y="361.6" textLength="12.2" clip-path="url(#terminal-2581599488-line-14)">
</text><text class="terminal-2581599488-r9" x="36.6" y="386" textLength="12.2" clip-path="url(#terminal-2581599488-line-15)">│</text><text class="terminal-2581599488-r7" x="73.2" y="386" textLength="366" clip-path="url(#terminal-2581599488-line-15)">&#160;&#160;30&#160;MB&#160;&#160;&#160;&#160;&#160;&#160;📀&#160;Nmap&#160;(portable)</text><text class="terminal-2581599488-r9" x="1366.4" y="386" textLength="12.2" clip-path="url(#terminal-2581599488-line-15)">│</text><text class="terminal-2581599488-r1" x="1439.6" y="386" textLength="12.2" clip-path="url(#terminal-2581599488-line-15)">
</text><text class="terminal-2581599488-r9" x="36.6" y="410.4" textLength="12.2" clip-path="url(#terminal-2581599488-line-16)">│</text><text class="terminal-2581599488-r7" x="73.2" y="410.4" textLength="427" clip-path="url(#terminal-2581599488-line-16)">&#160;&#160;0.50&#160;GB&#160;&#160;&#160;&#160;📀&#160;PayloadsAllTheThings</text><text class="terminal-2581599488-r9" x="1366.4" y="410.4" textLength="12.2" clip-path="url(#terminal-2581599488-line-16)">│</text><text class="terminal-2581599488-r1" x="1439.6" y="410.4" textLength="12.2" clip-path="url(#terminal-2581599488-line-16)">
</text><text class="terminal-2581599488-r9" x="36.6" y="434.8" textLength="12.2" clip-path="url(#terminal-2581599488-line-17)">│</text><text class="terminal-2581599488-r7" x="73.2" y="434.8" textLength="561.2" clip-path="url(#terminal-2581599488-line-17)">&#160;&#160;1.50&#160;GB&#160;&#160;&#160;&#160;📀&#160;SecLists&#160;(wordlists&#160;&amp;&#160;payloads)</text><text class="terminal-2581599488-r9" x="1366.4" y="434.8" textLength="12.2" clip-path="url(#terminal-2581599488-line-17)">│</text><text class="terminal-2581599488-r1" x="1439.6" y="434.8" textLength="12.2" clip-path="url(#terminal-2581599488-line-17)">
</text><text class="terminal-2581599488-r9" x="36.6" y="459.2" textLength="12.2" clip-path="url(#terminal-2581599488-line-18)">│</text><text class="terminal-2581599488-r7" x="73.2" y="459.2" textLength="463.6" clip-path="url(#terminal-2581599488-line-18)">&#160;&#160;10&#160;MB&#160;&#160;&#160;&#160;&#160;&#160;📀&#160;Memtest86+&#160;(RAM&#160;tester)</text><text class="terminal-2581599488-r9" x="1366.4" y="459.2" textLength="12.2" clip-path="url(#terminal-2581599488-line-18)">│</text><text class="terminal-2581599488-r1" x="1439.6" y="459.2" textLength="12.2" clip-path="url(#terminal-2581599488-line-18)">
</text><text class="terminal-2581599488-r9" x="36.6" y="483.6" textLength="12.2" clip-path="url(#terminal-2581599488-line-19)">│</text><text class="terminal-2581599488-r7" x="73.2" y="483.6" textLength="549" clip-path="url(#terminal-2581599488-line-19)">&#160;&#160;50&#160;MB&#160;&#160;&#160;&#160;&#160;&#160;📀&#160;Super&#160;Grub2&#160;Disk&#160;(boot&#160;rescue)</text><text class="terminal-2581599488-r9" x="1366.4" y="483.6" textLength="12.2" clip-path="url(#terminal-2581599488-line-19)">│</text><text class="terminal-2581599488-r1" x="1439.6" y="483.6" textLength="12.2" clip-path="url(#terminal-2581599488-line-19)">
</text><text class="terminal-2581599488-r9" x="36.6" y="508" textLength="12.2" clip-path="url(#terminal-2581599488-line-20)">│</text><text class="terminal-2581599488-r7" x="73.2" y="508" textLength="512.4" clip-path="url(#terminal-2581599488-line-20)">&#160;&#160;50&#160;MB&#160;&#160;&#160;&#160;&#160;&#160;📀&#160;PHNTM&#160;portable&#160;script&#160;layer</text><text class="terminal-2581599488-r9" x="1366.4" y="508" textLength="12.2" clip-path="url(#terminal-2581599488-line-20)">│</text><text class="terminal-2581599488-r1" x="1439.6" y="508" textLength="12.2" clip-path="url(#terminal-2581599488-line-20)">
</text><text class="terminal-2581599488-r9" x="36.6" y="532.4" textLength="12.2" clip-path="url(#terminal-2581599488-line-21)">│</text><text class="terminal-2581599488-r7" x="73.2" y="532.4" textLength="463.6" clip-path="url(#terminal-2581599488-line-21)">&#160;&#160;6.00&#160;GB&#160;&#160;&#160;&#160;🔐&#160;LUKS&#160;persistence&#160;(luks)</text><text class="terminal-2581599488-r9" x="1366.4" y="532.4" textLength="12.2" clip-path="url(#terminal-2581599488-line-21)">│</text><text class="terminal-2581599488-r1" x="1439.6" y="532.4" textLength="12.2" clip-path="url(#terminal-2581599488-line-21)">
</text><text class="terminal-2581599488-r9" x="36.6" y="556.8" textLength="12.2" clip-path="url(#terminal-2581599488-line-22)">│</text><text class="terminal-2581599488-r7" x="73.2" y="556.8" textLength="524.6" clip-path="url(#terminal-2581599488-line-22)">&#160;&#160;4.00&#160;GB&#160;&#160;&#160;&#160;🛡️&#160;VeraCrypt-style&#160;VAULT&#160;(4GB)</text><text class="terminal-2581599488-r9" x="1366.4" y="556.8" textLength="12.2" clip-path="url(#terminal-2581599488-line-22)">│</text><text class="terminal-2581599488-r1" x="1439.6" y="556.8" textLength="12.2" clip-path="url(#terminal-2581599488-line-22)">
</text><text class="terminal-2581599488-r9" x="36.6" y="581.2" textLength="12.2" clip-path="url(#terminal-2581599488-line-23)">│</text><text class="terminal-2581599488-r7" x="73.2" y="581.2" textLength="475.8" clip-path="url(#terminal-2581599488-line-23)">&#160;&#160;2.00&#160;GB&#160;&#160;&#160;&#160;📍&#160;DROP&#160;scratch&#160;space&#160;(2GB)</text><text class="terminal-2581599488-r9" x="1366.4" y="581.2" textLength="12.2" clip-path="url(#terminal-2581599488-line-23)">│</text><text class="terminal-2581599488-r1" x="1439.6" y="581.2" textLength="12.2" clip-path="url(#terminal-2581599488-line-23)">
</text><text class="terminal-2581599488-r9" x="36.6" y="605.6" textLength="12.2" clip-path="url(#terminal-2581599488-line-24)">│</text><text class="terminal-2581599488-r7" x="73.2" y="605.6" textLength="402.6" clip-path="url(#terminal-2581599488-line-24)">&#160;&#160;2.14&#160;GB&#160;&#160;&#160;&#160;🧾&#160;Filesystem/reserve</text><text class="terminal-2581599488-r9" x="1366.4" y="605.6" textLength="12.2" clip-path="url(#terminal-2581599488-line-24)">│</text><text class="terminal-2581599488-r1" x="1439.6" y="605.6" textLength="12.2" clip-path="url(#terminal-2581599488-line-24)">
</text><text class="terminal-2581599488-r9" x="36.6" y="630" textLength="12.2" clip-path="url(#terminal-2581599488-line-25)">│</text><text class="terminal-2581599488-r7" x="73.2" y="630" textLength="244" clip-path="url(#terminal-2581599488-line-25)">&#160;&#160;FREE&#160;&#160;&#160;&#160;&#160;&#160;&#160;2.28&#160;GB</text><text class="terminal-2581599488-r9" x="1366.4" y="630" textLength="12.2" clip-path="url(#terminal-2581599488-line-25)">│</text><text class="terminal-2581599488-r10" x="1378.6" y="630" textLength="24.4" clip-path="url(#terminal-2581599488-line-25)">▂▂</text><text class="terminal-2581599488-r1" x="1439.6" y="630" textLength="12.2" clip-path="url(#terminal-2581599488-line-25)">
</text><text class="terminal-2581599488-r9" x="36.6" y="654.4" textLength="12.2" clip-path="url(#terminal-2581599488-line-26)">│</text><text class="terminal-2581599488-r9" x="1366.4" y="654.4" textLength="12.2" clip-path="url(#terminal-2581599488-line-26)">│</text><text class="terminal-2581599488-r1" x="1439.6" y="654.4" textLength="12.2" clip-path="url(#terminal-2581599488-line-26)">
</text><text class="terminal-2581599488-r9" x="36.6" y="678.8" textLength="12.2" clip-path="url(#terminal-2581599488-line-27)">│</text><text class="terminal-2581599488-r7" x="73.2" y="678.8" textLength="122" clip-path="url(#terminal-2581599488-line-27)">&#160;&#160;→&#160;✅&#160;Fits</text><text class="terminal-2581599488-r9" x="1366.4" y="678.8" textLength="12.2" clip-path="url(#terminal-2581599488-line-27)">│</text><text class="terminal-2581599488-r1" x="1439.6" y="678.8" textLength="12.2" clip-path="url(#terminal-2581599488-line-27)">
</text><text class="terminal-2581599488-r9" x="36.6" y="703.2" textLength="12.2" clip-path="url(#terminal-2581599488-line-28)">│</text><text class="terminal-2581599488-r9" x="1366.4" y="703.2" textLength="12.2" clip-path="url(#terminal-2581599488-line-28)">│</text><text class="terminal-2581599488-r1" x="1439.6" y="703.2" textLength="12.2" clip-path="url(#terminal-2581599488-line-28)">
</text><text class="terminal-2581599488-r9" x="36.6" y="727.6" textLength="12.2" clip-path="url(#terminal-2581599488-line-29)">╰</text><text class="terminal-2581599488-r9" x="48.8" y="727.6" textLength="1317.6" clip-path="url(#terminal-2581599488-line-29)">────────────────────────────────────────────────────────────────────────────────────────────────────────────</text><text class="terminal-2581599488-r9" x="1366.4" y="727.6" textLength="12.2" clip-path="url(#terminal-2581599488-line-29)">╯</text><text class="terminal-2581599488-r1" x="1439.6" y="727.6" textLength="12.2" clip-path="url(#terminal-2581599488-line-29)">
</text><text class="terminal-2581599488-r1" x="1439.6" y="752" textLength="12.2" clip-path="url(#terminal-2581599488-line-30)">
</text><text class="terminal-2581599488-r8" x="36.6" y="776.4" textLength="829.6" clip-path="url(#terminal-2581599488-line-31)">No&#160;USB&#160;stick&#160;detected&#160;right&#160;now&#160;—&#160;save&#160;the&#160;plan,&#160;plug&#160;one&#160;in,&#160;then:&#160;</text><text class="terminal-2581599488-r11" x="866.2" y="776.4" textLength="317.2" clip-path="url(#terminal-2581599488-line-31)">phntm&#160;build&#160;&lt;file&gt;&#160;-d&#160;auto</text><text class="terminal-2581599488-r1" x="1439.6" y="776.4" textLength="12.2" clip-path="url(#terminal-2581599488-line-31)">
</text><text class="terminal-2581599488-r1" x="1439.6" y="800.8" textLength="12.2" clip-path="url(#terminal-2581599488-line-32)">
</text><text class="terminal-2581599488-r12" x="0" y="825.2" textLength="61" clip-path="url(#terminal-2581599488-line-33)">&#160;esc&#160;</text><text class="terminal-2581599488-r13" x="61" y="825.2" textLength="61" clip-path="url(#terminal-2581599488-line-33)">back&#160;</text><text class="terminal-2581599488-r14" x="1293.2" y="825.2" textLength="12.2" clip-path="url(#terminal-2581599488-line-33)">▏</text><text class="terminal-2581599488-r12" x="1305.4" y="825.2" textLength="24.4" clip-path="url(#terminal-2581599488-line-33)">^p</text><text class="terminal-2581599488-r13" x="1329.8" y="825.2" textLength="97.6" clip-path="url(#terminal-2581599488-line-33)">&#160;palette</text>
    </g>
    </g>
</svg>
